<?xml version="1.0" standalone="no"?>
<!DOCTYPE svg PUBLIC "-//W3C//DTD SVG 20010904//EN"
 "http://www.w3.org/TR/2001/REC-SVG-20010904/DTD/svg10.dtd">
<svg version="1.0" xmlns="http://www.w3.org/2000/svg"
 width="50.000000pt" height="50.000000pt" viewBox="0 0 50.000000 50.000000"
 preserveAspectRatio="xMidYMid meet">

<g transform="translate(0.000000,50.000000) scale(0.100000,-0.100000)"
fill="#000000" stroke="none">
<path d="M234 313 c-62 -65 -114 -124 -114 -130 0 -18 37 -53 55 -53 19 0 185
158 185 176 0 32 -40 9 -110 -61 -40 -40 -78 -71 -83 -68 -5 3 37 52 94 110
84 83 109 103 129 101 17 -2 26 -10 28 -25 2 -17 -27 -52 -120 -148 -132 -134
-156 -147 -198 -105 -39 39 -27 65 82 177 78 78 99 106 90 115 -9 9 -30 -5
-89 -59 -151 -136 -175 -193 -109 -259 66 -66 107 -48 270 123 93 98 116 127
116 151 0 38 -37 72 -79 72 -30 0 -47 -14 -147 -117z"/>
</g>
</svg>
