<?xml version="1.0" standalone="no"?>
<!DOCTYPE svg PUBLIC "-//W3C//DTD SVG 20010904//EN"
 "http://www.w3.org/TR/2001/REC-SVG-20010904/DTD/svg10.dtd">
<svg version="1.0" xmlns="http://www.w3.org/2000/svg"
 width="48.000000pt" height="48.000000pt" viewBox="0 0 48.000000 48.000000"
 preserveAspectRatio="xMidYMid meet">

<g transform="translate(0.000000,48.000000) scale(0.100000,-0.100000)"
fill="#000000" stroke="none">
<path d="M200 420 c-17 -17 -20 -33 -20 -100 0 -67 3 -83 20 -100 11 -11 29
-20 40 -20 11 0 29 9 40 20 17 17 20 33 20 100 0 67 -3 83 -20 100 -11 11 -29
20 -40 20 -11 0 -29 -9 -40 -20z"/>
<path d="M100 241 c0 -30 43 -85 83 -104 30 -15 37 -24 37 -48 0 -22 5 -29 20
-29 15 0 20 7 20 29 0 24 7 33 37 48 41 20 69 54 79 96 5 22 3 27 -13 27 -13
0 -23 -12 -32 -35 -13 -36 -53 -65 -91 -65 -38 0 -78 29 -91 65 -14 38 -49 50
-49 16z"/>
</g>
</svg>
